<svg xmlns="http://www.w3.org/2000/svg" width="132" height="46" fill="none"><g clip-path="url(#a)"><mask id="b" width="132" height="46" x="0" y="0" maskUnits="userSpaceOnUse" style="mask-type:luminance"><path fill="#fff" d="M0 0h131.309v46H0z"/></mask><g mask="url(#b)"><path fill="#fff" d="M54.952 12.044q2.892 0 5.021.953 2.162.954 3.306 2.734 1.143 1.779 1.144 4.227 0 2.415-1.144 4.227-1.145 1.779-3.306 2.733-2.13.953-5.021.953H49.93v6.42H45.8V12.044zm-.19 12.331q2.7 0 4.099-1.144 1.398-1.145 1.398-3.273 0-2.13-1.398-3.274t-4.1-1.144h-4.83v8.835zm14.205-12.331h4.132v18.751H84.73v3.496H68.967zm35.701 17.099H93.544L91.35 34.29h-4.259l10.011-22.247h4.069l10.043 22.247h-4.323l-2.224-5.148zm-1.367-3.242-4.195-9.725-4.164 9.725zm19.425.54v7.85h-4.132v-7.786l-8.74-14.461h4.418l6.515 10.837 6.579-10.837h4.068zM16.727 39.309c9.238 0 16.728-7.489 16.728-16.727 0-9.239-7.49-16.728-16.728-16.728C7.49 5.854 0 13.344 0 22.582s7.489 16.727 16.727 16.727"/></g></g><path fill="#3758F9" d="M14.47 11.176c.312.12.582.373 1.122.877l11.783 11.015a19.6 19.6 0 0 0-5.814 1.161l-7.817-7.421a.398.398 0 0 0-.66.383l2.547 10.455a19.6 19.6 0 0 0-3.933 4.47L8.07 16.39c-.166-.718-.248-1.077-.196-1.409.045-.293.165-.569.348-.802.208-.264.527-.449 1.166-.818l2.92-1.685c.639-.37.958-.554 1.291-.601.294-.042.593-.008.87.1"/><path fill="#1B44C8" d="M23.699 26.038c-.34.96-1.452 2.125-2.994 3.015-1.893 1.092-3.819 1.419-4.697.87.112.54.378 1.08.57 1.412 0 0 .842 1.687 2.63 2.166a1.23 1.23 0 0 1 .45-1.681c1.01-.583 1.517.298 1.928 1.013l.037.064a3.01 3.01 0 0 0 2.994 1.479 2.5 2.5 0 0 1-.773-.832c-.597-1.034-.212-1.77.235-2.624.355-.68.75-1.436.723-2.477a3.38 3.38 0 0 0-1.103-2.404"/><defs><clipPath id="a"><path fill="#fff" d="M0 0h132v46H0z"/></clipPath></defs></svg>